# Blender 5.2.1 LTS
# www.blender.org
mtllib su35.mtl
o Cube
v 0.000000 0.564755 3.031940
v 0.000000 -0.127374 2.908012
v 0.000000 0.253078 0.018777
v 0.000000 0.631054 3.584639
v 0.000000 -0.137380 3.690762
v 0.000000 0.741769 4.558372
v 0.000000 -0.225952 4.676468
v 0.000000 -0.205420 7.443387
v 0.000000 -0.361763 6.034832
v 0.000000 0.711159 5.111696
v 0.000000 -0.199586 7.780012
v 0.000000 -0.398947 -1.735008
v 0.000000 0.171067 -1.792416
v 0.000000 0.252999 6.151937
v 0.000000 -0.168380 -2.527713
v 0.000000 0.126942 -2.687635
v 0.000000 -0.057665 -3.505887
v 0.000000 0.055550 -3.280956
v 0.000000 -0.418113 2.144813
v -1.056253 -0.107649 -0.019385
v -1.056253 -0.154167 -0.175281
v -0.543448 0.076643 1.992518
v -0.998205 0.025117 2.201427
v -0.896854 -0.214319 -1.714906
v -2.108365 0.021047 1.359951
v -2.108365 0.089217 1.273655
v -2.151901 -0.151665 -0.578411
v -2.151901 -0.043805 -0.383783
v -0.438262 -0.451319 -1.720150
v -0.789234 0.117945 3.005819
v -0.789234 0.012099 3.017209
v -0.771820 0.091569 3.857701
v -0.771820 0.008869 3.873611
v -1.468390 0.063335 2.681629
v -1.468390 0.039765 2.738581
v -1.450976 0.066183 3.084183
v -1.450976 0.039765 3.095574
v -0.223270 -0.148017 6.740910
v -0.514959 0.068850 4.257976
v -0.514959 -0.172809 4.305214
v -3.560232 -0.036996 0.217709
v -3.560232 0.042307 0.150809
v -3.555974 -0.071277 -1.009183
v -3.555974 -0.043805 -1.014856
v -3.608552 0.043456 0.554596
v -3.673463 -0.036996 0.196641
v -3.673463 0.042307 0.194403
v -3.669206 -0.071277 -1.013379
v -3.669206 -0.043805 -1.015400
v -0.949119 0.126876 0.077052
v -2.269748 -0.179045 -2.358451
v -2.269748 -0.236311 -2.292842
v -0.237771 -0.299694 -1.738872
v -0.250636 0.157206 -1.781054
v -1.069313 -0.106364 -0.651062
v -1.082374 -0.109443 -1.766295
v -1.082374 -0.236311 -1.708887
v -2.102067 -0.236311 -2.492780
v -2.102067 -0.179045 -2.558389
v -2.431875 -0.187577 -2.051521
v -2.431875 -0.236311 -1.994113
v -1.070414 -0.236311 -2.330570
v -1.070414 -0.125845 -2.396179
v -0.900688 -0.084348 -1.771440
v -1.015398 -0.125845 -2.391154
v -1.015398 -0.236311 -2.325545
v -0.298399 0.419244 4.208036
v -0.227767 -0.127506 -2.517225
v -0.227767 0.126942 -2.677147
v -0.034357 -0.057665 -3.495398
v -0.034357 0.055550 -3.270467
v -0.289232 0.143345 -1.778432
v -0.885353 0.143345 -1.774936
v -0.318122 -0.451319 -1.721024
v -0.795471 -0.451774 -1.717528
v -0.379269 -0.059080 -2.309503
v -0.817808 -0.059080 -2.308594
v -0.379269 -0.220713 -2.309568
v -0.817808 -0.220713 -2.307165
v -0.586909 0.057953 -2.358321
v -0.587027 -0.340926 -2.358443
v -0.280259 0.390133 4.684836
v -0.240872 0.485568 3.295229
v -0.877310 0.120916 -0.686231
v -1.075844 -0.102950 -1.239410
v -0.894160 0.140687 -1.760923
v -0.736323 0.143345 -1.775810
v -0.438262 0.143345 -1.777558
v -0.914662 1.758995 -1.304831
v -0.916181 1.674820 -1.720733
v -0.900688 1.674820 -1.725878
v -0.894876 1.758995 -1.278709
v -0.711310 -0.101506 2.079185
v -0.712025 -0.456295 2.075690
v -0.343004 -0.445393 2.072193
v -0.271724 0.501365 2.613888
v -0.736323 -0.451319 -1.718402
v -0.289232 -0.340198 -1.749728
v -0.345917 -0.101544 2.076722
v -0.710430 -0.102718 2.185166
v -0.711145 -0.457508 2.181670
v -0.342124 -0.446606 2.178174
v -0.346822 -0.102756 2.182702
v -0.699988 -0.112331 2.074594
v -0.700659 -0.445200 2.071098
v -0.354438 -0.434972 2.067602
v -0.358846 -0.112367 2.072131
v -0.699163 -0.113468 2.180575
v -0.699834 -0.446338 2.177079
v -0.353613 -0.436109 2.173583
v -0.358020 -0.113504 2.178112
v -0.932691 -0.076058 -0.600735
v -0.829266 -0.372622 -1.716654
v -0.863060 -0.293471 -1.715780
v -0.773158 -0.139110 0.814488
v -0.790106 -0.361092 -0.452151
v -0.756499 -0.266949 0.414695
v -0.672061 -0.038213 2.139075
v 1.056253 -0.107649 -0.019385
v 1.056253 -0.154167 -0.175281
v 0.543448 0.076643 1.992518
v 0.998205 0.025117 2.201427
v 0.896854 -0.214319 -1.714906
v 2.108365 0.021047 1.359951
v 2.108365 0.089217 1.273655
v 2.151901 -0.151665 -0.578411
v 2.151901 -0.043805 -0.383783
v 0.438262 -0.451319 -1.720150
v 0.789234 0.117945 3.005819
v 0.789234 0.012099 3.017209
v 0.771820 0.091569 3.857701
v 0.771820 0.008869 3.873611
v 1.468390 0.063335 2.681629
v 1.468390 0.039765 2.738581
v 1.450976 0.066183 3.084183
v 1.450976 0.039765 3.095574
v 0.223270 -0.148017 6.740910
v 0.514959 0.068850 4.257976
v 0.514959 -0.172809 4.305214
v 3.560232 -0.036996 0.217709
v 3.560232 0.042307 0.150809
v 3.555974 -0.071277 -1.009183
v 3.555974 -0.043805 -1.014856
v 3.608552 0.043456 0.554596
v 3.673463 -0.036996 0.196641
v 3.673463 0.042307 0.194403
v 3.669206 -0.071277 -1.013379
v 3.669206 -0.043805 -1.015400
v 0.949119 0.126876 0.077052
v 2.269748 -0.179045 -2.358451
v 2.269748 -0.236311 -2.292842
v 0.237771 -0.299694 -1.738872
v 0.250636 0.157206 -1.781054
v 1.069313 -0.106364 -0.651062
v 1.082374 -0.109443 -1.766295
v 1.082374 -0.236311 -1.708887
v 2.102067 -0.236311 -2.492780
v 2.102067 -0.179045 -2.558389
v 2.431875 -0.187577 -2.051521
v 2.431875 -0.236311 -1.994113
v 1.070414 -0.236311 -2.330570
v 1.070414 -0.125845 -2.396179
v 0.900688 -0.084348 -1.771440
v 1.015398 -0.125845 -2.391154
v 1.015398 -0.236311 -2.325545
v 0.298399 0.419244 4.208036
v 0.227767 -0.127506 -2.517225
v 0.227767 0.126942 -2.677147
v 0.034357 -0.057665 -3.495398
v 0.034357 0.055550 -3.270467
v 0.289232 0.143345 -1.778432
v 0.885353 0.143345 -1.774936
v 0.318122 -0.451319 -1.721024
v 0.795471 -0.451774 -1.717528
v 0.379269 -0.059080 -2.309503
v 0.817808 -0.059080 -2.308594
v 0.379269 -0.220713 -2.309568
v 0.817808 -0.220713 -2.307165
v 0.586909 0.057953 -2.358321
v 0.587027 -0.340926 -2.358443
v 0.280259 0.390133 4.684836
v 0.240872 0.485568 3.295229
v 0.877310 0.120916 -0.686231
v 1.075844 -0.102950 -1.239410
v 0.894160 0.140687 -1.760923
v 0.736323 0.143345 -1.775810
v 0.438262 0.143345 -1.777558
v 0.914662 1.758995 -1.304831
v 0.916181 1.674820 -1.720733
v 0.900688 1.674820 -1.725878
v 0.894876 1.758995 -1.278709
v 0.711310 -0.101506 2.079185
v 0.712025 -0.456295 2.075690
v 0.343004 -0.445393 2.072193
v 0.271724 0.501365 2.613888
v 0.736323 -0.451319 -1.718402
v 0.289232 -0.340198 -1.749728
v 0.345917 -0.101544 2.076722
v 0.710430 -0.102718 2.185166
v 0.711145 -0.457508 2.181670
v 0.342124 -0.446606 2.178174
v 0.346822 -0.102756 2.182702
v 0.699988 -0.112331 2.074594
v 0.700659 -0.445200 2.071098
v 0.354438 -0.434972 2.067602
v 0.358846 -0.112367 2.072131
v 0.699163 -0.113468 2.180575
v 0.699834 -0.446338 2.177079
v 0.353613 -0.436109 2.173583
v 0.358020 -0.113504 2.178112
v 0.932691 -0.076058 -0.600735
v 0.829266 -0.372622 -1.716654
v 0.863060 -0.293471 -1.715780
v 0.773158 -0.139110 0.814488
v 0.790106 -0.361092 -0.452151
v 0.756499 -0.266949 0.414695
v 0.672061 -0.038213 2.139075
vn -0.6770 -0.7357 0.0190
vn 0.9692 -0.2443 0.0296
vn -0.0521 0.9900 0.1308
vn -0.0305 -0.9955 0.0894
vn -0.0543 -0.9956 0.0764
vn 0.1492 0.9475 -0.2827
vn 0.0564 0.9928 -0.1053
vn -0.1702 -0.9850 0.0279
vn -0.1466 0.9863 -0.0757
vn -0.5404 0.8410 0.0270
vn -0.7449 0.1260 0.6552
vn -0.1862 -0.9825 0.0001
vn -0.2776 0.9601 0.0348
vn -0.0741 0.9967 0.0324
vn 0.3742 -0.0992 -0.9220
vn -0.0421 -0.9991 -0.0029
vn -0.9939 0.1021 0.0423
vn -0.9927 0.0232 0.1186
vn -0.5556 -0.8280 0.0750
vn -0.6295 0.7322 0.2599
vn -0.7681 0.6367 0.0681
vn 0.2846 -0.8112 -0.5108
vn -0.8343 0.1041 0.5413
vn 0.2129 0.8546 -0.4736
vn 0.0303 0.9963 -0.0808
vn -0.4607 0.6965 0.5502
vn -0.0052 -0.9996 0.0279
vn -0.0421 -0.9731 0.2264
vn 0.0004 0.9973 -0.0737
vn 0.0363 -0.2021 -0.9787
vn -1.0000 -0.0003 -0.0035
vn 0.9880 0.0995 0.1179
vn -0.0011 1.0000 -0.0030
vn -0.9841 0.0050 0.1773
vn -0.3851 -0.9228 -0.0046
vn -0.9974 -0.0686 0.0205
vn -0.0258 -0.9922 0.1222
vn -0.5792 0.6214 0.5275
vn -0.0662 0.9978 0.0065
vn -0.7662 -0.4899 -0.4158
vn 0.1340 -0.5061 -0.8520
vn -0.0000 -1.0000 -0.0000
vn -0.6170 -0.5929 -0.5175
vn -0.0413 0.9985 -0.0346
vn 0.2410 0.9532 -0.1826
vn 0.9806 -0.0530 -0.1885
vn 0.0024 0.9997 -0.0260
vn 0.0783 -0.5091 -0.8571
vn -0.3684 -0.8927 -0.2596
vn -0.1804 -0.9779 -0.1055
vn -0.0568 0.9978 -0.0351
vn -0.9994 -0.0299 -0.0195
vn -0.1360 0.8849 -0.4454
vn -0.0056 0.9926 -0.1213
vn -0.9415 -0.1793 -0.2853
vn -0.7128 -0.2973 -0.6352
vn 0.2289 0.0002 -0.9735
vn -0.2063 -0.0086 -0.9784
vn -0.5699 0.8209 0.0371
vn -0.6741 0.7130 -0.1926
vn 0.9947 0.0444 0.0932
vn -0.3151 0.0203 -0.9488
vn -0.9962 0.0866 0.0114
vn -0.9957 0.0898 0.0208
vn -0.7049 0.4670 0.5339
vn -0.7112 0.5087 0.4852
vn -0.1284 0.9903 0.0532
vn 0.2491 -0.0574 -0.9668
vn 0.5195 0.8162 -0.2530
vn -0.0009 0.9894 -0.1453
vn -0.0021 0.9349 -0.3549
vn -0.9882 -0.1514 -0.0219
vn 0.9873 0.0001 -0.1588
vn 0.0018 -0.9310 -0.3649
vn 0.5288 -0.8070 -0.2628
vn -0.0010 -0.9854 -0.1702
vn 0.0295 -0.9996 0.0008
vn 0.9999 0.0086 -0.0082
vn -0.2569 0.9662 0.0218
vn 0.9999 0.0051 -0.0156
vn -0.1330 0.9909 -0.0203
vn -0.1821 -0.9822 0.0452
vn -0.6792 -0.6859 0.2613
vn 0.0072 -0.0139 0.9999
vn -0.7589 0.6349 0.1446
vn -0.8569 0.4718 0.2078
vn 0.0294 -0.9995 -0.0117
vn -0.0025 0.3823 0.9240
vn 0.0062 -0.3872 0.9220
vn 0.3671 -0.0105 0.9301
vn -0.3846 -0.0154 0.9229
vn 0.0002 0.9999 0.0114
vn -0.0002 -0.9999 -0.0107
vn 1.0000 -0.0019 -0.0078
vn -0.9999 -0.0138 0.0076
vn -0.0294 0.9995 0.0110
vn 0.0061 -0.3967 0.9179
vn -0.0026 0.3846 0.9231
vn -0.3651 -0.0172 0.9308
vn 0.3844 -0.0099 0.9231
vn -1.0000 0.0019 0.0083
vn 0.1701 -0.9772 0.1267
vn -0.9191 -0.3928 0.0320
vn -0.9713 -0.2368 0.0211
vn -0.8993 -0.4367 0.0253
vn 0.2516 -0.9623 -0.1036
vn -0.0093 -0.9830 -0.1832
vn -0.1736 -0.9809 0.0880
vn -0.0001 0.9996 -0.0297
vn -0.0572 0.9973 -0.0452
vn -0.1658 0.9859 0.0215
vn 0.6098 -0.7904 0.0583
vn 0.9999 0.0084 0.0065
vn -0.4274 0.7094 0.5604
vn -0.0656 -0.9975 0.0276
vn -0.0352 -0.9954 0.0895
vn 0.1775 0.8608 -0.4770
vn 0.0851 0.9930 -0.0819
vn -0.1757 -0.9844 -0.0126
vn -0.9683 0.0267 0.2485
vn -0.6854 0.7235 -0.0823
vn -0.7276 0.2716 0.6299
vn -0.2054 -0.9747 -0.0876
vn -0.4153 0.9032 -0.1083
vn -0.0784 0.9969 -0.0037
vn 0.2488 -0.8949 -0.3704
vn -0.0415 -0.9991 0.0020
vn -0.9986 0.0210 0.0487
vn -0.5161 -0.8513 0.0945
vn -0.7754 0.6305 0.0349
vn -0.0309 -0.9946 -0.0994
vn -0.8343 0.1058 0.5410
vn 0.2775 -0.1943 -0.9409
vn 0.0330 0.9967 -0.0735
vn -0.5220 0.5500 0.6520
vn -0.0010 -0.9996 0.0283
vn -0.0274 0.9971 -0.0711
vn 0.0048 -0.0734 -0.9973
vn -1.0000 -0.0001 -0.0035
vn -0.0554 0.9984 -0.0116
vn -0.0573 0.9984 -0.0025
vn -0.7696 -0.4811 -0.4199
vn 0.1408 -0.7459 -0.6510
vn -0.0473 0.9985 -0.0269
vn 0.1181 -0.9929 0.0128
vn -0.0657 0.9781 -0.1977
vn 0.9792 -0.1035 -0.1743
vn -0.1378 0.9896 -0.0408
vn -0.1821 -0.9596 -0.2146
vn -0.0343 -0.9931 -0.1124
vn -0.0023 0.9988 -0.0492
vn -0.9996 -0.0157 -0.0250
vn -0.0364 0.9922 -0.1194
vn -0.9332 0.3210 -0.1616
vn -0.8498 0.0492 -0.5248
vn -0.3593 -0.1432 -0.9222
vn 0.4844 -0.0460 -0.8737
vn 0.2291 0.0004 -0.9734
vn -0.2167 0.0004 -0.9762
vn -0.5802 0.8141 0.0226
vn -0.5725 0.8187 0.0449
vn -0.0349 0.0477 -0.9983
vn -0.0062 0.0261 -0.9996
vn -0.9955 0.0931 -0.0152
vn -0.9058 0.2848 0.3137
vn -0.8447 0.5313 0.0646
vn -0.0736 0.9920 -0.1026
vn -0.9195 0.3363 0.2036
vn -0.7279 0.6711 -0.1404
vn -0.0343 -0.0928 -0.9951
vn -0.0021 0.9345 -0.3559
vn -0.4799 0.8420 -0.2465
vn -0.9921 -0.0011 -0.1252
vn 0.9865 -0.0097 -0.1635
vn 0.9308 -0.2970 -0.2131
vn -0.4908 -0.8322 -0.2580
vn -0.0027 -0.9312 -0.3646
vn 0.0077 -1.0000 -0.0014
vn -0.0000 -1.0000 0.0016
vn -0.0000 -1.0000 -0.0013
vn 0.9999 0.0135 0.0087
vn 0.9999 0.0046 -0.0139
vn 0.0104 -0.0105 0.9999
vn -0.9006 0.3819 0.2077
vn -0.0025 0.3984 0.9172
vn 0.0066 -0.3986 0.9171
vn 0.3828 -0.0099 0.9238
vn -0.3214 -0.0177 0.9468
vn 0.0066 -0.3846 0.9231
vn -0.0026 0.4008 0.9162
vn -0.3853 -0.0182 0.9226
vn 0.3687 -0.0105 0.9295
vn 0.1207 -0.9855 0.1196
vn -0.9988 0.0015 0.0488
vn -0.9877 -0.1559 0.0087
vn -0.9980 0.0538 0.0329
vn -0.9075 -0.4123 0.0800
vn -0.6668 -0.7175 0.2016
vn -0.2236 -0.9715 0.0787
vn -0.0004 0.9981 -0.0609
vn -0.0745 0.9960 -0.0488
vn 0.6770 -0.7357 0.0190
vn -0.9692 -0.2443 0.0296
vn 0.0521 0.9900 0.1308
vn 0.0305 -0.9955 0.0894
vn 0.0543 -0.9956 0.0764
vn -0.1492 0.9475 -0.2827
vn -0.0564 0.9928 -0.1053
vn 0.1702 -0.9850 0.0279
vn 0.1466 0.9863 -0.0757
vn 0.5404 0.8410 0.0270
vn 0.7449 0.1260 0.6552
vn 0.1862 -0.9825 0.0001
vn 0.2776 0.9601 0.0348
vn 0.0741 0.9967 0.0324
vn -0.3742 -0.0992 -0.9220
vn 0.0421 -0.9991 -0.0029
vn 0.9939 0.1021 0.0423
vn 0.9927 0.0232 0.1186
vn 0.5556 -0.8280 0.0750
vn 0.6295 0.7322 0.2599
vn 0.7681 0.6367 0.0681
vn -0.2846 -0.8112 -0.5108
vn 0.8343 0.1041 0.5413
vn -0.2129 0.8546 -0.4736
vn -0.0303 0.9963 -0.0808
vn 0.4607 0.6965 0.5502
vn 0.0052 -0.9996 0.0279
vn 0.0421 -0.9731 0.2264
vn -0.0004 0.9973 -0.0737
vn -0.0363 -0.2021 -0.9787
vn 1.0000 -0.0003 -0.0035
vn -0.9880 0.0995 0.1179
vn 0.0011 1.0000 -0.0030
vn 0.9841 0.0050 0.1773
vn 0.3851 -0.9228 -0.0046
vn 0.9974 -0.0686 0.0205
vn 0.0258 -0.9922 0.1222
vn 0.5792 0.6214 0.5275
vn 0.0662 0.9978 0.0065
vn 0.7662 -0.4899 -0.4158
vn -0.1340 -0.5061 -0.8520
vn 0.6170 -0.5929 -0.5175
vn 0.0413 0.9985 -0.0346
vn -0.2410 0.9532 -0.1826
vn -0.9806 -0.0530 -0.1885
vn -0.0024 0.9997 -0.0260
vn -0.0783 -0.5091 -0.8571
vn 0.3684 -0.8927 -0.2596
vn 0.1804 -0.9779 -0.1055
vn 0.0568 0.9978 -0.0351
vn 0.9994 -0.0299 -0.0195
vn 0.1360 0.8849 -0.4454
vn 0.0056 0.9926 -0.1213
vn 0.9415 -0.1793 -0.2853
vn 0.7128 -0.2973 -0.6352
vn -0.2289 0.0002 -0.9735
vn 0.2063 -0.0086 -0.9784
vn 0.5699 0.8209 0.0371
vn 0.6741 0.7130 -0.1926
vn -0.9947 0.0444 0.0932
vn 0.3151 0.0203 -0.9488
vn 0.9962 0.0866 0.0114
vn 0.9957 0.0898 0.0208
vn 0.7049 0.4670 0.5339
vn 0.7112 0.5087 0.4852
vn 0.1284 0.9903 0.0532
vn -0.2491 -0.0574 -0.9668
vn -0.5195 0.8162 -0.2530
vn 0.0009 0.9894 -0.1453
vn 0.0021 0.9349 -0.3549
vn 0.9882 -0.1514 -0.0219
vn -0.9873 0.0001 -0.1588
vn -0.0018 -0.9310 -0.3649
vn -0.5288 -0.8070 -0.2628
vn 0.0010 -0.9854 -0.1702
vn -0.0295 -0.9996 0.0008
vn -0.9999 0.0086 -0.0082
vn 0.2569 0.9662 0.0218
vn -0.9999 0.0051 -0.0156
vn 0.1330 0.9909 -0.0203
vn 0.1821 -0.9822 0.0452
vn 0.6792 -0.6859 0.2613
vn -0.0072 -0.0139 0.9999
vn 0.7589 0.6349 0.1446
vn 0.8569 0.4718 0.2078
vn -0.0294 -0.9995 -0.0117
vn 0.0025 0.3823 0.9240
vn -0.0062 -0.3872 0.9220
vn -0.3671 -0.0105 0.9301
vn 0.3846 -0.0154 0.9229
vn -0.0002 0.9999 0.0114
vn 0.0002 -0.9999 -0.0107
vn -1.0000 -0.0019 -0.0078
vn 0.9999 -0.0138 0.0076
vn 0.0294 0.9995 0.0110
vn -0.0061 -0.3967 0.9179
vn 0.0026 0.3846 0.9231
vn 0.3651 -0.0172 0.9308
vn -0.3844 -0.0099 0.9231
vn 1.0000 0.0019 0.0083
vn -0.1701 -0.9772 0.1267
vn 0.9191 -0.3928 0.0320
vn 0.9713 -0.2368 0.0211
vn 0.8993 -0.4367 0.0253
vn -0.2516 -0.9623 -0.1036
vn 0.0093 -0.9830 -0.1832
vn 0.1736 -0.9809 0.0880
vn 0.0001 0.9996 -0.0297
vn 0.0572 0.9973 -0.0452
vn 0.1658 0.9859 0.0215
vn -0.6098 -0.7904 0.0583
vn -0.9999 0.0084 0.0065
vn 0.4274 0.7094 0.5604
vn 0.0656 -0.9975 0.0276
vn 0.0352 -0.9954 0.0895
vn -0.1775 0.8608 -0.4770
vn -0.0851 0.9930 -0.0819
vn 0.1757 -0.9844 -0.0126
vn 0.9683 0.0267 0.2485
vn 0.6854 0.7235 -0.0823
vn 0.7276 0.2716 0.6299
vn 0.2054 -0.9747 -0.0876
vn 0.4153 0.9032 -0.1083
vn 0.0784 0.9969 -0.0037
vn -0.2488 -0.8949 -0.3704
vn 0.0415 -0.9991 0.0020
vn 0.9986 0.0210 0.0487
vn 0.5161 -0.8513 0.0945
vn 0.7754 0.6305 0.0349
vn 0.0309 -0.9946 -0.0994
vn 0.8343 0.1058 0.5410
vn -0.2775 -0.1943 -0.9409
vn -0.0330 0.9967 -0.0735
vn 0.5220 0.5500 0.6520
vn 0.0010 -0.9996 0.0283
vn 0.0274 0.9971 -0.0711
vn -0.0048 -0.0734 -0.9973
vn 1.0000 -0.0001 -0.0035
vn 0.0554 0.9984 -0.0116
vn 0.0573 0.9984 -0.0025
vn 0.7696 -0.4811 -0.4199
vn -0.1408 -0.7459 -0.6510
vn 0.0473 0.9985 -0.0269
vn -0.1181 -0.9929 0.0128
vn 0.0657 0.9781 -0.1977
vn -0.9792 -0.1035 -0.1743
vn 0.1378 0.9896 -0.0408
vn 0.1821 -0.9596 -0.2146
vn 0.0343 -0.9931 -0.1124
vn 0.0023 0.9988 -0.0492
vn 0.9996 -0.0157 -0.0250
vn 0.0364 0.9922 -0.1194
vn 0.9332 0.3210 -0.1616
vn 0.8498 0.0492 -0.5248
vn 0.3593 -0.1432 -0.9222
vn -0.4844 -0.0460 -0.8737
vn -0.2291 0.0004 -0.9734
vn 0.2167 0.0004 -0.9762
vn 0.5802 0.8141 0.0226
vn 0.5725 0.8187 0.0449
vn 0.0349 0.0477 -0.9983
vn 0.0062 0.0261 -0.9996
vn 0.9955 0.0931 -0.0152
vn 0.9058 0.2848 0.3137
vn 0.8447 0.5313 0.0646
vn 0.0736 0.9920 -0.1026
vn 0.9195 0.3363 0.2036
vn 0.7279 0.6711 -0.1404
vn 0.0343 -0.0928 -0.9951
vn 0.0021 0.9345 -0.3559
vn 0.4799 0.8420 -0.2465
vn 0.9921 -0.0011 -0.1252
vn -0.9865 -0.0097 -0.1635
vn -0.9308 -0.2970 -0.2131
vn 0.4908 -0.8322 -0.2580
vn 0.0027 -0.9312 -0.3646
vn -0.0077 -1.0000 -0.0014
vn -0.9999 0.0135 0.0087
vn -0.9999 0.0046 -0.0139
vn -0.0104 -0.0105 0.9999
vn 0.9006 0.3819 0.2077
vn 0.0025 0.3984 0.9172
vn -0.0066 -0.3986 0.9171
vn -0.3828 -0.0099 0.9238
vn 0.3214 -0.0177 0.9468
vn -0.0066 -0.3846 0.9231
vn 0.0026 0.4008 0.9162
vn 0.3853 -0.0182 0.9226
vn -0.3687 -0.0105 0.9295
vn -0.1207 -0.9855 0.1196
vn 0.9988 0.0015 0.0488
vn 0.9877 -0.1559 0.0087
vn 0.9980 0.0538 0.0329
vn 0.9075 -0.4123 0.0800
vn 0.6668 -0.7175 0.2016
vn 0.2236 -0.9715 0.0787
vn 0.0004 0.9981 -0.0609
vn 0.0745 0.9960 -0.0488
vt 0.000000 0.000000
vt 0.312500 0.500000
vt 0.625000 0.750000
vt 0.375000 0.750000
vt 0.375000 0.500000
vt 0.625000 0.500000
vt 0.250000 0.750000
vt 0.687500 0.750000
vt 0.750000 0.750000
vt 0.250000 0.750000
vt 0.250000 0.500000
vt 0.687500 0.500000
vt 0.750000 0.500000
vt 0.187500 0.375000
vt 0.750000 0.750000
s 0
usemtl Material
f 99/1/1 53/2/1 19/1/1
f 99/1/2 74/1/2 98/1/2
f 26/3/3 23/4/3 22/3/3
f 41/4/4 27/5/4 25/4/4
f 25/4/5 21/5/5 23/4/5
f 21/5/6 28/6/6 20/6/6
f 20/6/7 26/3/7 22/3/7
f 2/7/8 31/4/8 23/4/8
f 23/4/9 30/3/9 22/3/9
f 67/8/10 4/9/10 83/8/10
f 32/3/11 37/4/11 33/4/11
f 5/7/12 33/4/12 31/4/12
f 83/8/13 1/9/13 96/8/13
f 30/3/14 36/3/14 32/3/14
f 35/4/15 30/3/15 31/4/15
f 37/4/16 31/4/16 33/4/16
f 35/4/17 36/3/17 34/3/17
f 40/4/18 38/4/18 39/3/18
f 9/10/19 38/4/19 40/4/19
f 38/4/20 8/7/20 14/1/20
f 82/8/21 6/9/21 67/8/21
f 7/7/22 40/4/22 33/4/22
f 33/4/23 39/3/23 32/3/23
f 27/5/24 44/6/24 28/6/24
f 28/6/25 42/3/25 26/3/25
f 26/3/26 41/4/26 25/4/26
f 46/4/27 43/5/27 41/4/27
f 41/4/28 45/4/28 46/4/28
f 49/6/29 42/3/29 44/6/29
f 48/5/30 44/6/30 43/5/30
f 46/4/31 49/6/31 48/5/31
f 42/3/32 45/3/32 41/4/32
f 47/3/33 45/3/33 42/3/33
f 46/4/34 45/4/34 47/3/34
f 19/2/35 53/2/35 12/11/35
f 20/6/36 55/6/36 21/5/36
f 61/5/37 57/5/37 55/5/37
f 55/5/38 60/6/38 61/5/38
f 60/6/39 55/6/39 85/6/39
f 60/6/40 52/5/40 61/5/40
f 58/5/41 63/6/41 62/5/41
f 58/5/42 57/5/42 52/5/42
f 51/6/43 58/5/43 52/5/43
f 56/6/44 59/6/44 51/6/44
f 66/5/42 57/5/42 62/5/42
f 91/1/45 89/1/45 92/1/45
f 66/5/46 64/6/46 24/5/46
f 56/6/47 65/6/47 63/6/47
f 65/6/48 62/5/48 63/6/48
f 53/1/49 15/1/49 12/1/49
f 70/1/50 15/1/50 68/1/50
f 13/1/51 69/1/51 54/1/51
f 54/1/52 68/1/52 53/1/52
f 18/1/53 70/1/53 71/1/53
f 16/1/54 71/1/54 69/1/54
f 71/1/55 68/1/55 69/1/55
f 113/1/56 114/1/56 64/1/56
f 80/1/57 78/1/57 81/1/57
f 80/1/58 79/1/58 77/1/58
f 32/3/59 83/8/59 30/3/59
f 30/3/60 96/8/60 22/3/60
f 84/12/61 92/1/61 50/1/61
f 90/1/62 91/1/62 86/1/62
f 89/1/63 56/1/63 55/1/63
f 20/1/64 89/1/64 55/1/64
f 89/1/65 50/1/65 92/1/65
f 39/3/66 67/8/66 32/3/66
f 3/13/67 50/1/67 22/3/67
f 72/1/68 53/1/68 98/1/68
f 88/1/69 76/1/69 80/1/69
f 88/1/70 80/1/70 87/1/70
f 87/1/71 77/1/71 73/1/71
f 73/1/72 79/1/72 75/1/72
f 98/1/73 78/1/73 76/1/73
f 79/1/74 97/1/74 75/1/74
f 78/1/75 29/1/75 81/1/75
f 81/1/76 29/1/76 97/1/76
f 29/1/77 95/1/77 94/1/77
f 99/1/78 102/1/78 95/1/78
f 73/1/79 86/1/79 84/1/79
f 86/1/80 92/1/80 84/12/80
f 50/12/81 3/13/81 84/1/81
f 118/14/82 2/7/82 23/4/82
f 19/1/83 2/7/83 99/1/83
f 104/1/84 106/1/84 107/1/84
f 14/1/85 39/3/85 38/4/85
f 82/8/86 14/1/86 10/15/86
f 94/1/87 102/1/87 101/1/87
f 102/1/88 109/1/88 101/1/88
f 108/1/89 103/1/89 100/1/89
f 93/1/90 105/1/90 104/1/90
f 99/1/91 106/1/91 95/1/91
f 103/1/92 93/1/92 100/1/92
f 107/1/93 108/1/93 104/1/93
f 108/1/94 105/1/94 104/1/94
f 110/1/95 107/1/95 106/1/95
f 105/1/96 110/1/96 106/1/96
f 93/1/97 107/1/97 99/1/97
f 95/1/98 105/1/98 94/1/98
f 111/1/99 102/1/99 103/1/99
f 109/1/100 100/1/100 101/1/100
f 100/1/101 94/1/101 101/1/101
f 55/5/102 24/5/102 112/5/102
f 114/1/103 116/1/103 24/5/103
f 116/1/104 75/1/104 94/1/104
f 116/1/105 112/5/105 24/5/105
f 21/5/106 55/5/106 112/5/106
f 117/1/107 21/5/107 112/5/107
f 23/4/108 115/1/108 118/14/108
f 118/14/108 115/1/108 99/1/108
f 99/1/109 115/1/109 93/1/109
f 3/1/110 13/1/110 54/1/110
f 84/1/111 3/1/111 73/1/111
f 99/1/112 98/1/112 53/2/112
f 99/1/113 95/1/113 74/1/113
f 26/3/114 25/4/114 23/4/114
f 41/4/115 43/5/115 27/5/115
f 25/4/116 27/5/116 21/5/116
f 21/5/117 27/5/117 28/6/117
f 20/6/118 28/6/118 26/3/118
f 2/7/119 5/7/119 31/4/119
f 23/4/120 31/4/120 30/3/120
f 67/8/121 6/9/121 4/9/121
f 32/3/122 36/3/122 37/4/122
f 5/7/123 7/7/123 33/4/123
f 83/8/124 4/9/124 1/9/124
f 30/3/125 34/3/125 36/3/125
f 35/4/126 34/3/126 30/3/126
f 37/4/127 35/4/127 31/4/127
f 35/4/128 37/4/128 36/3/128
f 9/10/129 8/7/129 38/4/129
f 82/8/130 10/15/130 6/9/130
f 7/7/131 9/10/131 40/4/131
f 33/4/132 40/4/132 39/3/132
f 27/5/133 43/5/133 44/6/133
f 28/6/134 44/6/134 42/3/134
f 26/3/135 42/3/135 41/4/135
f 46/4/136 48/5/136 43/5/136
f 49/6/137 47/3/137 42/3/137
f 48/5/138 49/6/138 44/6/138
f 46/4/139 47/3/139 49/6/139
f 61/5/42 52/5/42 57/5/42
f 85/6/140 56/6/140 60/6/140
f 56/6/141 51/6/141 60/6/141
f 60/6/142 51/6/142 52/5/142
f 58/5/143 59/6/143 63/6/143
f 58/5/42 62/5/42 57/5/42
f 51/6/43 59/6/43 58/5/43
f 56/6/144 63/6/144 59/6/144
f 66/5/145 24/5/145 57/5/145
f 91/1/146 90/1/146 89/1/146
f 66/5/147 65/6/147 64/6/147
f 56/6/148 64/6/148 65/6/148
f 65/6/48 66/5/48 62/5/48
f 53/1/149 68/1/149 15/1/149
f 70/1/150 17/1/150 15/1/150
f 13/1/151 16/1/151 69/1/151
f 54/1/152 69/1/152 68/1/152
f 18/1/53 17/1/53 70/1/53
f 16/1/153 18/1/153 71/1/153
f 71/1/154 70/1/154 68/1/154
f 64/1/155 86/1/155 73/1/155
f 73/1/156 75/1/156 113/1/156
f 114/1/56 24/1/56 64/1/56
f 73/1/157 113/1/157 64/1/157
f 80/1/158 76/1/158 78/1/158
f 80/1/159 81/1/159 79/1/159
f 32/3/160 67/8/160 83/8/160
f 30/3/161 83/8/161 96/8/161
f 86/1/162 64/1/162 56/1/162
f 56/1/163 90/1/163 86/1/163
f 89/1/164 90/1/164 56/1/164
f 89/1/165 20/1/165 50/1/165
f 39/3/166 82/8/166 67/8/166
f 96/8/167 1/9/167 3/13/167
f 50/1/168 20/6/168 22/3/168
f 96/8/169 3/13/169 22/3/169
f 72/1/170 54/1/170 53/1/170
f 88/1/171 72/1/171 76/1/171
f 87/1/172 80/1/172 77/1/172
f 73/1/173 77/1/173 79/1/173
f 76/1/174 72/1/174 98/1/174
f 98/1/175 74/1/175 78/1/175
f 79/1/176 81/1/176 97/1/176
f 78/1/177 74/1/177 29/1/177
f 94/1/178 75/1/178 97/1/178
f 29/1/179 74/1/179 95/1/179
f 94/1/180 97/1/180 29/1/180
f 99/1/181 103/1/181 102/1/181
f 86/1/182 91/1/182 92/1/182
f 118/14/82 99/1/82 2/7/82
f 104/1/183 105/1/183 106/1/183
f 14/1/184 82/8/184 39/3/184
f 94/1/87 95/1/87 102/1/87
f 102/1/185 110/1/185 109/1/185
f 108/1/186 111/1/186 103/1/186
f 93/1/187 94/1/187 105/1/187
f 99/1/188 107/1/188 106/1/188
f 103/1/92 99/1/92 93/1/92
f 107/1/93 111/1/93 108/1/93
f 108/1/94 109/1/94 105/1/94
f 110/1/95 111/1/95 107/1/95
f 105/1/96 109/1/96 110/1/96
f 93/1/189 104/1/189 107/1/189
f 95/1/190 106/1/190 105/1/190
f 111/1/191 110/1/191 102/1/191
f 109/1/192 108/1/192 100/1/192
f 100/1/101 93/1/101 94/1/101
f 55/5/193 57/5/193 24/5/193
f 114/1/103 113/1/103 116/1/103
f 93/1/194 115/1/194 94/1/194
f 115/1/195 117/1/195 94/1/195
f 116/1/103 113/1/103 75/1/103
f 117/1/196 116/1/196 94/1/196
f 116/1/197 117/1/197 112/5/197
f 117/1/198 115/1/198 21/5/198
f 23/4/199 21/5/199 115/1/199
f 87/1/200 73/1/200 3/1/200
f 72/1/201 88/1/201 3/1/201 54/1/201
f 88/1/200 87/1/200 3/1/200
f 198/1/202 19/1/202 152/2/202
f 198/1/203 197/1/203 173/1/203
f 125/3/204 121/3/204 122/4/204
f 140/4/205 124/4/205 126/5/205
f 124/4/206 122/4/206 120/5/206
f 120/5/207 119/6/207 127/6/207
f 119/6/208 121/3/208 125/3/208
f 2/7/209 122/4/209 130/4/209
f 122/4/210 121/3/210 129/3/210
f 166/8/211 182/8/211 4/9/211
f 131/3/212 132/4/212 136/4/212
f 5/7/213 130/4/213 132/4/213
f 182/8/214 195/8/214 1/9/214
f 129/3/215 131/3/215 135/3/215
f 134/4/216 130/4/216 129/3/216
f 136/4/217 132/4/217 130/4/217
f 134/4/218 133/3/218 135/3/218
f 139/4/219 138/3/219 137/4/219
f 9/10/220 139/4/220 137/4/220
f 137/4/221 14/1/221 8/7/221
f 181/8/222 166/8/222 6/9/222
f 7/7/223 132/4/223 139/4/223
f 132/4/224 131/3/224 138/3/224
f 126/5/225 127/6/225 143/6/225
f 127/6/226 125/3/226 141/3/226
f 125/3/227 124/4/227 140/4/227
f 145/4/228 140/4/228 142/5/228
f 140/4/229 145/4/229 144/4/229
f 148/6/230 143/6/230 141/3/230
f 147/5/231 142/5/231 143/6/231
f 145/4/232 147/5/232 148/6/232
f 141/3/233 140/4/233 144/3/233
f 146/3/234 141/3/234 144/3/234
f 145/4/235 146/3/235 144/4/235
f 19/2/236 12/11/236 152/2/236
f 119/6/237 120/5/237 154/6/237
f 160/5/238 154/5/238 156/5/238
f 154/5/239 160/5/239 159/6/239
f 159/6/240 184/6/240 154/6/240
f 159/6/241 160/5/241 151/5/241
f 157/5/242 161/5/242 162/6/242
f 157/5/42 151/5/42 156/5/42
f 150/6/243 151/5/243 157/5/243
f 155/6/244 150/6/244 158/6/244
f 165/5/42 161/5/42 156/5/42
f 190/1/245 191/1/245 188/1/245
f 165/5/246 123/5/246 163/6/246
f 155/6/247 162/6/247 164/6/247
f 164/6/248 162/6/248 161/5/248
f 152/1/249 12/1/249 15/1/249
f 169/1/250 167/1/250 15/1/250
f 13/1/251 153/1/251 168/1/251
f 153/1/252 152/1/252 167/1/252
f 18/1/253 170/1/253 169/1/253
f 16/1/254 168/1/254 170/1/254
f 170/1/255 168/1/255 167/1/255
f 212/1/256 163/1/256 213/1/256
f 179/1/257 180/1/257 177/1/257
f 179/1/258 176/1/258 178/1/258
f 131/3/259 129/3/259 182/8/259
f 129/3/260 121/3/260 195/8/260
f 183/12/261 149/1/261 191/1/261
f 189/1/262 185/1/262 190/1/262
f 188/1/263 154/1/263 155/1/263
f 119/1/264 154/1/264 188/1/264
f 188/1/265 191/1/265 149/1/265
f 138/3/266 131/3/266 166/8/266
f 3/13/267 121/3/267 149/1/267
f 171/1/268 197/1/268 152/1/268
f 187/1/269 179/1/269 175/1/269
f 187/1/270 186/1/270 179/1/270
f 186/1/271 172/1/271 176/1/271
f 172/1/272 174/1/272 178/1/272
f 197/1/273 175/1/273 177/1/273
f 178/1/274 174/1/274 196/1/274
f 177/1/275 180/1/275 128/1/275
f 180/1/276 196/1/276 128/1/276
f 128/1/277 193/1/277 194/1/277
f 198/1/278 194/1/278 201/1/278
f 172/1/279 183/1/279 185/1/279
f 185/1/280 183/12/280 191/1/280
f 149/12/281 183/1/281 3/13/281
f 217/14/282 122/4/282 2/7/282
f 19/1/283 198/1/283 2/7/283
f 203/1/284 206/1/284 205/1/284
f 14/1/285 137/4/285 138/3/285
f 181/8/286 10/15/286 14/1/286
f 193/1/287 200/1/287 201/1/287
f 201/1/288 200/1/288 208/1/288
f 207/1/289 199/1/289 202/1/289
f 192/1/290 203/1/290 204/1/290
f 198/1/291 194/1/291 205/1/291
f 202/1/292 199/1/292 192/1/292
f 206/1/293 203/1/293 207/1/293
f 207/1/294 203/1/294 204/1/294
f 209/1/295 205/1/295 206/1/295
f 204/1/296 205/1/296 209/1/296
f 192/1/297 198/1/297 206/1/297
f 194/1/298 193/1/298 204/1/298
f 210/1/299 202/1/299 201/1/299
f 208/1/300 200/1/300 199/1/300
f 199/1/301 200/1/301 193/1/301
f 154/5/302 211/5/302 123/5/302
f 213/1/303 123/5/303 215/1/303
f 215/1/304 193/1/304 174/1/304
f 215/1/305 123/5/305 211/5/305
f 120/5/306 211/5/306 154/5/306
f 216/1/307 211/5/307 120/5/307
f 122/4/308 217/14/308 214/1/308
f 217/14/308 198/1/308 214/1/308
f 198/1/309 192/1/309 214/1/309
f 3/1/310 153/1/310 13/1/310
f 183/1/311 172/1/311 3/1/311
f 198/1/312 152/2/312 197/1/312
f 198/1/313 173/1/313 194/1/313
f 125/3/314 122/4/314 124/4/314
f 140/4/315 126/5/315 142/5/315
f 124/4/316 120/5/316 126/5/316
f 120/5/317 127/6/317 126/5/317
f 119/6/318 125/3/318 127/6/318
f 2/7/319 130/4/319 5/7/319
f 122/4/320 129/3/320 130/4/320
f 166/8/321 4/9/321 6/9/321
f 131/3/322 136/4/322 135/3/322
f 5/7/323 132/4/323 7/7/323
f 182/8/324 1/9/324 4/9/324
f 129/3/325 135/3/325 133/3/325
f 134/4/326 129/3/326 133/3/326
f 136/4/327 130/4/327 134/4/327
f 134/4/328 135/3/328 136/4/328
f 9/10/329 137/4/329 8/7/329
f 181/8/330 6/9/330 10/15/330
f 7/7/331 139/4/331 9/10/331
f 132/4/332 138/3/332 139/4/332
f 126/5/333 143/6/333 142/5/333
f 127/6/334 141/3/334 143/6/334
f 125/3/335 140/4/335 141/3/335
f 145/4/336 142/5/336 147/5/336
f 148/6/337 141/3/337 146/3/337
f 147/5/338 143/6/338 148/6/338
f 145/4/339 148/6/339 146/3/339
f 160/5/42 156/5/42 151/5/42
f 184/6/340 159/6/340 155/6/340
f 155/6/341 159/6/341 150/6/341
f 159/6/342 151/5/342 150/6/342
f 157/5/343 162/6/343 158/6/343
f 157/5/42 156/5/42 161/5/42
f 150/6/243 157/5/243 158/6/243
f 155/6/344 158/6/344 162/6/344
f 165/5/345 156/5/345 123/5/345
f 190/1/346 188/1/346 189/1/346
f 165/5/347 163/6/347 164/6/347
f 155/6/348 164/6/348 163/6/348
f 164/6/248 161/5/248 165/5/248
f 152/1/349 15/1/349 167/1/349
f 169/1/350 15/1/350 17/1/350
f 13/1/351 168/1/351 16/1/351
f 153/1/352 167/1/352 168/1/352
f 18/1/253 169/1/253 17/1/253
f 16/1/353 170/1/353 18/1/353
f 170/1/354 167/1/354 169/1/354
f 163/1/355 172/1/355 185/1/355
f 172/1/356 212/1/356 174/1/356
f 213/1/256 163/1/256 123/1/256
f 172/1/357 163/1/357 212/1/357
f 179/1/358 177/1/358 175/1/358
f 179/1/359 178/1/359 180/1/359
f 131/3/360 182/8/360 166/8/360
f 129/3/361 195/8/361 182/8/361
f 185/1/362 155/1/362 163/1/362
f 155/1/363 185/1/363 189/1/363
f 188/1/364 155/1/364 189/1/364
f 188/1/365 149/1/365 119/1/365
f 138/3/366 166/8/366 181/8/366
f 195/8/367 3/13/367 1/9/367
f 149/1/368 121/3/368 119/6/368
f 195/8/369 121/3/369 3/13/369
f 171/1/370 152/1/370 153/1/370
f 187/1/371 175/1/371 171/1/371
f 186/1/372 176/1/372 179/1/372
f 172/1/373 178/1/373 176/1/373
f 175/1/374 197/1/374 171/1/374
f 197/1/375 177/1/375 173/1/375
f 178/1/376 196/1/376 180/1/376
f 177/1/377 128/1/377 173/1/377
f 193/1/378 196/1/378 174/1/378
f 128/1/179 194/1/179 173/1/179
f 193/1/180 128/1/180 196/1/180
f 198/1/379 201/1/379 202/1/379
f 185/1/380 191/1/380 190/1/380
f 217/14/282 2/7/282 198/1/282
f 203/1/381 205/1/381 204/1/381
f 14/1/382 138/3/382 181/8/382
f 193/1/287 201/1/287 194/1/287
f 201/1/383 208/1/383 209/1/383
f 207/1/384 202/1/384 210/1/384
f 192/1/385 204/1/385 193/1/385
f 198/1/386 205/1/386 206/1/386
f 202/1/292 192/1/292 198/1/292
f 206/1/293 207/1/293 210/1/293
f 207/1/294 204/1/294 208/1/294
f 209/1/295 206/1/295 210/1/295
f 204/1/296 209/1/296 208/1/296
f 192/1/387 206/1/387 203/1/387
f 194/1/388 204/1/388 205/1/388
f 210/1/389 201/1/389 209/1/389
f 208/1/390 199/1/390 207/1/390
f 199/1/301 193/1/301 192/1/301
f 154/5/391 123/5/391 156/5/391
f 213/1/303 215/1/303 212/1/303
f 192/1/392 193/1/392 214/1/392
f 214/1/393 193/1/393 216/1/393
f 215/1/303 174/1/303 212/1/303
f 216/1/394 193/1/394 215/1/394
f 215/1/395 211/5/395 216/1/395
f 216/1/396 120/5/396 214/1/396
f 122/4/397 214/1/397 120/5/397
f 186/1/398 3/1/398 172/1/398
f 171/1/399 153/1/399 3/1/399 187/1/399
f 187/1/398 3/1/398 186/1/398
l 11 8
