# Blender 5.2.1 LTS
# www.blender.org
mtllib tree.mtl
o Cube
v 0.164217 0.706695 -0.164217
v 0.164217 -0.164217 -0.164217
v 0.164217 0.706695 0.164217
v 0.164217 -0.164217 0.164217
v -0.164217 0.706695 -0.164217
v -0.164217 -0.164217 -0.164217
v -0.164217 0.706695 0.164217
v -0.164217 -0.164217 0.164217
v 0.164217 0.909527 -2.833688
v 2.674416 0.909527 0.164217
v -3.502419 0.909527 -0.164217
v -0.164217 0.909527 3.489548
v 0.164217 3.795011 -0.954350
v 0.295077 3.795011 0.164217
v -0.221361 3.795011 -0.164217
v -0.164217 3.865679 1.186254
v 1.282589 3.851202 -2.831999
v 2.408316 3.851202 0.343875
v -2.034360 3.851202 -0.588626
v -1.542778 3.921870 3.245678
v 0.032242 6.048224 0.024126
vn 0.0891 -0.9938 -0.0672
vn -0.0000 -0.0000 1.0000
vn -1.0000 -0.0000 -0.0000
vn -0.0000 -1.0000 -0.0000
vn 1.0000 -0.0000 -0.0000
vn -0.0000 -0.0000 -1.0000
vn -0.6861 0.5657 0.4575
vn -0.0550 -0.9951 -0.0824
vn 0.0711 -0.9952 0.0677
vn -0.0660 -0.9963 0.0553
vn 0.0301 -0.9995 -0.0088
vn 0.6983 0.4901 0.5217
vn -0.5526 0.5250 -0.6473
vn 0.7459 0.4634 -0.4785
vn -0.7373 0.6706 0.0822
vn -0.0201 -0.9994 0.0294
vn 0.0097 -0.9989 0.0469
vn -0.0320 -0.9987 -0.0391
vn 0.4769 0.6082 0.6346
vn -0.4465 0.6041 -0.6601
vn 0.6763 0.6965 -0.2397
vt 0.625000 0.750000
vt 0.625000 0.500000
vt 0.375000 0.750000
vt 0.625000 1.000000
vt 0.375000 1.000000
vt 0.375000 0.000000
vt 0.625000 0.000000
vt 0.625000 0.250000
vt 0.375000 0.250000
vt 0.125000 0.500000
vt 0.375000 0.500000
vt 0.125000 0.750000
s 0
usemtl Material
f 3/1/1 1/2/1 9/2/1 10/1/1
f 4/3/2 3/1/2 7/4/2 8/5/2
f 8/6/3 7/7/3 5/8/3 6/9/3
f 6/10/4 2/11/4 4/3/4 8/12/4
f 2/11/5 1/2/5 3/1/5 4/3/5
f 6/9/6 5/8/6 1/2/6 2/11/6
f 11/8/7 12/7/7 16/7/7 15/8/7
f 1/2/8 5/8/8 11/8/8 9/2/8
f 7/4/9 3/1/9 10/1/9 12/4/9
f 5/8/10 7/7/10 12/7/10 11/8/10
f 14/1/11 13/2/11 17/2/11 18/1/11
f 12/4/12 10/1/12 14/1/12 16/4/12
f 9/2/13 11/8/13 15/8/13 13/2/13
f 10/1/14 9/2/14 13/2/14 14/1/14
f 19/8/15 20/7/15 21/8/15
f 15/8/16 16/7/16 20/7/16 19/8/16
f 16/4/17 14/1/17 18/1/17 20/4/17
f 13/2/18 15/8/18 19/8/18 17/2/18
f 20/4/19 18/1/19 21/4/19
f 17/2/20 19/8/20 21/2/20
f 18/1/21 17/2/21 21/1/21
